<svg width="64" height="24" viewBox="0 0 64 24" fill="none" xmlns="http://www.w3.org/2000/svg">
  <!-- Gamosa Woven Border Motif -->
  <rect width="64" height="24" fill="#FAF8F4"/>
  <rect y="2" width="64" height="2" fill="#D32F2F"/>
  <rect y="20" width="64" height="2" fill="#D32F2F"/>
  <!-- Diamond / Cross Floral Weave -->
  <path d="M4 12L8 8L12 12L8 16L4 12Z" fill="#D32F2F"/>
  <path d="M16 12L20 8L24 12L20 16L16 12Z" fill="#D32F2F"/>
  <path d="M28 12L32 8L36 12L32 16L28 12Z" fill="#D32F2F"/>
  <path d="M40 12L44 8L48 12L44 16L40 12Z" fill="#D32F2F"/>
  <path d="M52 12L56 8L60 12L56 16L52 12Z" fill="#D32F2F"/>
</svg>
